<svg xmlns="http://www.w3.org/2000/svg" width="67" height="18" viewBox="0 0 67 18">
    <path fill="#000" fill-rule="evenodd" d="M24.763 5.142c.371 0 .517.176.517.45 0 3.69 0 8.048-.033 11.737-.004.173.006.424-.338.424H23.9c-.236 0-.33-.086-.444-.32a85.607 85.607 0 0 1-.491-1.17c-1.165 1.339-3.537 2.07-5.587 1.588-1.913-.45-3.13-1.586-3.43-3.546-.106-.686-.098-1.402-.104-2.095-.02-2.052-.007-4.422-.007-6.474 0-.287.051-.593.544-.593h1.817c.419 0 .513.247.513.501 0 .1.046 7.413.067 7.744.13 2.144 2.34 2.381 3.754 1.763 1.122-.49 1.775-1.56 1.817-2.827.02-1.712.05-6.278.05-6.701 0 0-.057-.481.457-.48l1.908-.001zM10.83 13.718c.06.045.918.813 1.13 1.017.232.239.15.463-.093.756-.795.954-2.572 2.465-5.176 2.437-.843-.01-1.726-.104-2.735-.505-2.894-1.15-4.214-3.972-3.914-6.818.327-3.109 2.6-5.283 5.727-5.64 1.966-.224 4.22.281 5.68 1.868.359.387.65.651.194 1.038a21.34 21.34 0 0 1-1.184.943c-.327.219-.53.056-.718-.102a10.483 10.483 0 0 0-.796-.583c-1.234-.776-2.846-.69-3.753-.35-1.462.546-2.47 1.934-2.434 3.702.04 1.973 1.218 3.552 3.29 3.853 2.48.36 4.017-1.483 4.069-1.543.176-.2.426-.287.713-.073zM52.58.05c.465.044.557.283.557.535l-.032 1.419c.003.288-.19.438-.45.438-.134 0-.26-.018-.404-.027-1.975-.123-1.837 1.185-1.837 1.584v1.144h2.134c.263 0 .483.089.483.413v1.467c0 .343-.17.452-.422.452h-2.195v9.681c0 .308-.07.598-.536.598l-1.845-.001c-.264 0-.528-.05-.528-.51l-.003-5.734V7.474l-1.675.003c-.295 0-.46-.1-.46-.416V5.594c0-.27.151-.453.556-.453h1.58v-.873C47.43 1.425 48.695-.32 52.58.05zm8.192.59c0-.461.324-.59.654-.59.38.002 1.35 0 1.73 0 .526 0 .597.405.597.628v4.465h2.654c.322 0 .467.197.467.452v1.434c0 .323-.226.446-.54.446h-2.581v5.857c0 .54.003 1.876 1.48 1.892.143.001.56.006.747.01.376.005.53.321.581.513l.37 1.606c.04.264-.173.387-.397.4h-.004c-.95.038-1.723.028-2.364-.067-2.221-.328-3.38-1.58-3.38-3.983L60.772.64zm-26.909 0c0-.461.324-.59.654-.59.38.002 1.35 0 1.73 0 .526 0 .597.405.597.628v4.465h2.654c.322 0 .467.197.467.452v1.434c0 .323-.225.446-.54.446h-2.581v5.857c0 .54.003 1.876 1.48 1.892.143.001.56.006.747.01.377.005.53.321.582.513l.37 1.606c.038.264-.174.387-.398.4h-.004c-.95.038-1.723.028-2.364-.067-2.22-.328-3.38-1.58-3.38-3.983L33.863.64zm23.505 4.503c.325 0 .589.178.589.554v11.501c0 .307-.264.555-.59.555h-1.73c-.325 0-.589-.248-.589-.555V5.665c0-.354.264-.523.59-.523h1.73zM30.447.049c.325 0 .589.178.589.555v16.593c0 .307-.264.555-.59.555h-1.73c-.325 0-.59-.248-.59-.555V.572c0-.354.265-.523.59-.523h1.73zm25.442 3.203c-.475 0-.859-.361-.859-.807V.857c0-.446.384-.808.859-.808h1.228c.474 0 .858.362.858.808v1.588c0 .446-.384.807-.858.807h-1.228zm-12.893 14.5c-.475 0-.859-.361-.859-.807v-1.588c0-.446.384-.808.859-.808h1.228c.474 0 .858.362.858.808v1.588c0 .446-.384.808-.858.808h-1.228z"/>
</svg>
