<svg xmlns="http://www.w3.org/2000/svg" width="60" height="18" viewBox="0 0 60 18">
    <path fill="#000" fill-rule="evenodd" d="M45.222.049c.453.044.543.283.543.534l-.031 1.414c.003.287-.186.437-.44.437-.13 0-.253-.018-.393-.027-1.926-.123-1.791 1.181-1.791 1.58v1.14h2.08c.256 0 .471.088.471.411v1.463c0 .342-.165.451-.411.451h-2.14v9.653c0 .306-.07.596-.524.596l-1.799-.001c-.257 0-.514-.05-.514-.51l-.002-5.716V7.452l-1.635.003c-.287 0-.449-.1-.449-.415V5.578c0-.27.149-.452.543-.452h1.54v-.87C40.2 1.42 41.435-.32 45.223.049zm7.988.588c0-.46.316-.588.638-.587l1.686-.001c.513 0 .583.404.583.626v4.452h2.588c.314 0 .455.196.455.45v1.43c0 .323-.22.445-.527.445h-2.516v5.84c0 .537.003 1.87 1.443 1.886l.729.01c.367.006.516.321.567.512l.36 1.6c.038.264-.169.387-.387.4h-.004c-.927.037-1.68.028-2.305-.066-2.166-.328-3.296-1.577-3.296-3.972L53.21.637zm-26.319 0c0-.46.316-.588.638-.587l1.687-.001c.513 0 .582.404.582.626v4.452h2.588c.315 0 .456.196.456.45v1.43c0 .323-.22.445-.528.445h-2.516v5.84c0 .537.003 1.87 1.443 1.886l.729.01c.367.006.516.321.567.512l.36 1.6c.039.264-.168.387-.387.4h-.003c-.928.037-1.68.028-2.306-.066-2.166-.328-3.296-1.577-3.296-3.972L26.891.637zm23 4.49c.317 0 .574.177.574.553v11.467a.564.564 0 0 1-.575.553h-1.687a.564.564 0 0 1-.575-.553V5.648c0-.353.258-.521.575-.521h1.687zm-1.443-1.884c-.463 0-.837-.36-.837-.805V.854c0-.445.374-.805.837-.805h1.198c.462 0 .837.36.837.805v1.584c0 .444-.375.805-.837.805h-1.198zM35.875 17.7c-.462 0-.837-.36-.837-.806v-1.583c0-.445.375-.805.837-.805h1.198c.463 0 .837.36.837.805v1.583c0 .445-.374.806-.837.806h-1.198zm-17.414-1.927c1.036 0 2.02-.607 2.604-1.154.308-.288.415-.56.415-.958v-1.221a.237.237 0 0 0-.147-.217 6.15 6.15 0 0 0-2.234-.433c-1.523 0-2.626.7-2.67 2.002-.035 1.067.678 1.981 2.032 1.981zm.423-6.28c1.355 0 2.624.38 2.624.38.036-1.738-.62-2.385-2.236-2.515-1.49-.12-3.3.486-3.978.676-.395.082-.648-.162-.733-.515l-.254-1.032c-.085-.434.113-.624.423-.732.226-.082 2.598-1.027 4.994-.93 4.069.163 4.55 2.48 4.55 5.602v6.676c0 .326-.311.597-.622.597h-.93c-.254 0-.396-.108-.537-.434l-.285-.774c-.731.603-2.028 1.507-4.031 1.507-2.455 0-4.204-1.574-4.204-4.18 0-2.307 1.862-4.326 5.22-4.326zm-16.07.48h6.563C9.364 8.538 8.1 7.28 6.433 7.193c-1.856-.099-3.412 1.104-3.62 2.78zm9.219-.802c.149.6.162 1.243.154 1.87l.002.006v.71a.584.584 0 0 1-.595.572H2.816c-.002.769.35 1.531.835 2.045 1.338 1.416 3.834 1.27 5.445.371.197-.11.557-.323.692-.4.361-.207.574-.101.727.135.1.154.656 1.116.729 1.228.158.243.206.513-.035.699-.092.07-1.608 1.292-3.858 1.507-1.104.105-2.223-.012-2.977-.218-2.5-.682-3.814-2.25-4.27-4.76-.241-1.775-.243-4.858 2.034-6.747 2.992-2.444 8.747-1.647 9.895 2.982z"/>
</svg>
