<svg xmlns="http://www.w3.org/2000/svg" xmlns:xlink="http://www.w3.org/1999/xlink" width="141" height="44" viewBox="0 0 141 44">
    <defs>
        <path id="a" d="M14.395 42.725V.098H.136v42.627h14.259z"/>
        <path id="c" d="M.071 32.147h25.167V.352H.07z"/>
    </defs>
    <g fill="none" fill-rule="evenodd">
        <path fill="#000" d="M107.283.118c-8.986-.889-11.916 3.31-11.747 10.148v2.1H91.88c-.936 0-1.288.437-1.288 1.088v3.528c0 .76.383 1 1.066 1l3.877-.006v9.702c0 4.3.005 12.903.005 13.788 0 1.11.611 1.228 1.22 1.228l4.268.002c1.078 0 1.242-.697 1.242-1.436V17.976h5.077c.585 0 .976-.264.976-1.088V13.36c0-.78-.51-.993-1.117-.993h-4.936V9.616c0-.96-.319-4.106 4.25-3.81.331.022.623.065.933.065.603 0 1.05-.361 1.042-1.055l.075-3.41c0-.606-.213-1.182-1.288-1.288"/>
        <g transform="translate(126.097 .02)">
            <mask id="b" fill="#fff">
                <use xlink:href="#a"/>
            </mask>
            <path fill="#000" d="M.136 1.517C.136.41.885.098 1.649.1c.879.002 3.122-.002 4-.002 1.218 0 1.382.974 1.382 1.511v10.738h6.14c.746-.001 1.08.474 1.08 1.087v3.448c0 .78-.52 1.074-1.25 1.074h-5.97V32.04c0 1.298.009 4.514 3.424 4.55.33.004 1.297.017 1.729.024.87.015 1.225.775 1.345 1.237l.855 3.86c.09.636-.4.932-.918.965h-.01c-2.199.089-3.986.066-5.469-.162C2.85 41.725.17 38.713.17 32.935L.136 1.517" mask="url(#b)"/>
        </g>
        <path fill="#000" d="M63.796 1.537c0-1.108.749-1.42 1.513-1.417.879.002 3.122-.002 4-.002 1.218 0 1.382.974 1.382 1.511v10.738h6.14c.746-.002 1.08.474 1.08 1.087v3.448c0 .779-.52 1.074-1.25 1.074h-5.97V32.06c0 1.297.008 4.514 3.423 4.55.332.003 1.298.017 1.73.024.87.015 1.225.775 1.345 1.236l.855 3.861c.09.636-.4.932-.919.965h-.008c-2.2.089-3.987.066-5.47-.162-5.138-.79-7.818-3.802-7.818-9.58l-.033-31.418M118.358 12.367h-4.004c-.753 0-1.363.406-1.363 1.257v27.737c0 .736.61 1.334 1.363 1.334h4.004c.752 0 1.363-.598 1.363-1.334v-27.66c0-.907-.61-1.334-1.363-1.334M114.935 7.822h2.842c1.097 0 1.986-.87 1.986-1.942V2.06c0-1.073-.89-1.942-1.986-1.942h-2.842c-1.097 0-1.986.87-1.986 1.943v3.82c0 1.071.89 1.941 1.986 1.941M85.109 42.697h2.841c1.097 0 1.986-.87 1.986-1.943v-3.82c0-1.072-.889-1.942-1.986-1.942H85.11c-1.097 0-1.986.87-1.986 1.943v3.82c0 1.072.889 1.942 1.986 1.942"/>
        <g transform="translate(32.347 11.271)">
            <mask id="d" fill="#fff">
                <use xlink:href="#c"/>
            </mask>
            <path fill="#000" d="M11.45 26.778c2.458 0 4.79-1.465 6.177-2.784.731-.695.984-1.35.984-2.31v-2.946a.57.57 0 0 0-.348-.522c-.852-.373-2.943-1.046-5.299-1.046-3.615 0-6.23 1.689-6.333 4.83-.085 2.574 1.606 4.778 4.819 4.778m1.004-15.147c3.212 0 6.224.916 6.224.916.085-4.193-1.47-5.753-5.306-6.068-3.535-.29-7.829 1.174-9.435 1.632-.937.196-1.539-.393-1.74-1.244L1.594 4.38c-.2-1.048.269-1.506 1.004-1.768C3.134 2.415 8.761.136 14.445.37c9.653.393 10.793 5.984 10.793 13.513v16.104c0 .786-.736 1.44-1.473 1.44h-2.209c-.602 0-.937-.261-1.272-1.047l-.676-1.867c-1.735 1.454-4.812 3.636-9.564 3.636-5.823 0-9.973-3.798-9.973-10.083 0-5.565 4.418-10.434 12.383-10.434" mask="url(#d)"/>
        </g>
        <path fill="#000" d="M6.675 24.057c.492-4.04 4.183-6.942 8.587-6.706 3.957.212 6.953 3.246 6.983 6.706H6.675zm21.87-1.934C25.823 10.958 12.17 9.036 5.073 14.933-.33 19.486-.326 26.925.248 31.204c1.08 6.057 4.199 9.838 10.129 11.483 1.789.496 4.442.78 7.062.526 5.338-.52 8.935-3.464 9.154-3.636.57-.449.457-1.098.081-1.685-.173-.27-1.494-2.59-1.728-2.962-.363-.57-.868-.825-1.725-.328-.322.186-1.174.702-1.643.968-3.821 2.167-9.742 2.52-12.917-.897-1.152-1.24-1.986-3.078-1.98-4.932h20.824c.78 0 1.411-.617 1.411-1.38V26.65l-.005-.014c.019-1.511-.012-3.061-.365-4.512z"/>
    </g>
</svg>
