<svg xmlns="http://www.w3.org/2000/svg" width="74" height="18" viewBox="0 0 74 18">
    <path fill="#000" fill-rule="evenodd" d="M63.147 3.415a.782.782 0 0 1-.768-.796V1.054c0-.44.344-.795.768-.795h1.1c.425 0 .769.356.769.795V2.62c0 .44-.344.796-.769.796h-1.1zm-42.134 0a.782.782 0 0 1-.768-.796V1.054c0-.44.344-.795.768-.795h1.1c.425 0 .77.356.77.795V2.62c0 .44-.345.796-.77.796h-1.1zM60.152.048c.416.044.498.28.498.528l-.028 1.397c.002.284-.17.432-.404.432-.12 0-.233-.017-.36-.026-1.77-.122-1.646 1.167-1.646 1.56v1.128h1.91c.236 0 .433.087.433.406V6.92c0 .338-.151.446-.378.446h-1.965v9.54c0 .302-.063.588-.48.588h-1.653c-.236 0-.472-.05-.472-.504l-.002-5.65V7.366l-1.5.003c-.265 0-.414-.099-.414-.41V5.512c0-.266.137-.446.499-.446h1.415v-.86c-.066-2.801 1.069-4.522 4.547-4.158zM67.52.84c0-.455.29-.582.585-.58l1.549-.002c.47 0 .534.4.534.62v4.399h2.377c.29-.001.418.194.418.445v1.413c0 .319-.201.44-.484.44h-2.31v5.77c0 .532.003 1.85 1.324 1.865l.67.01c.337.006.474.317.52.506l.332 1.582c.035.26-.155.382-.356.395h-.003c-.852.037-1.543.027-2.117-.066-1.99-.324-3.027-1.558-3.027-3.925L67.521.84zm-3.05 4.437c.292 0 .529.175.529.546v11.333a.537.537 0 0 1-.528.546h-1.55a.537.537 0 0 1-.527-.546V5.792c0-.349.236-.515.527-.515h1.55zm-42.133 0c.292 0 .528.175.528.546v11.333a.537.537 0 0 1-.528.546h-1.55a.537.537 0 0 1-.527-.546V5.792c0-.349.236-.515.527-.515h1.55zm29.264 12.426a.783.783 0 0 1-.769-.796v-1.565c0-.44.344-.795.769-.795h1.1c.424 0 .769.356.769.795v1.565c0 .44-.345.796-.77.796h-1.1zM0 5.901c0-.295.26-.59.57-.59h.596c.285 0 .44.134.518.375l.278.935c.26-.295 1.438-1.649 3.867-1.578C7.565 5.093 8.625 5.8 9.482 7c.337-.35 1.762-1.958 4.042-1.958 3.527 0 4.56 2.628 4.56 5.847v6.222c0 .322-.234.59-.57.59h-1.451c-.363 0-.57-.268-.57-.59v-6.33c0-1.7-.469-3.027-2.206-3.139-1.916-.123-2.89 1.663-2.956 1.74.01.057.032.675.032 1.319v6.41c0 .322-.26.59-.544.59H8.342c-.336 0-.57-.268-.57-.59v-6.33c0-2.011-.787-3.129-2.357-3.191-.965-.039-1.688.347-2.142.809-.545.555-.682 1.262-.682 1.88v6.832c0 .322-.285.59-.57.59H.57a.582.582 0 0 1-.57-.59V5.9zm43.018 9.458c.986 0 1.734-.334 2.236-.781.474-.424.743-1.1.743-1.842V9.128c0-.363-.331-.683-.698-.952-.493-.363-1.221-.586-2.048-.586-2.053 0-3.472 1.797-3.472 3.916 0 2.275 1.322 3.853 3.239 3.853zm-.052-10.317c1.587-.047 2.48.366 3.006.644V.849c0-.325.256-.59.57-.59h1.476c.311 0 .57.295.57.59v16.375a.47.47 0 0 1-.461.478h-.873c-.285 0-.433-.102-.511-.424l-.237-.753c-.37.415-1.585 1.544-3.85 1.472-3.35-.107-5.378-2.697-5.378-6.508 0-3.62 2.374-6.348 5.688-6.447zm-17.37 12.661c-.332 0-.463-.174-.463-.444 0-3.636 0-7.93.03-11.565.003-.17-.006-.417.302-.417h.905c.211 0 .296.084.397.314.043.098.411 1.076.44 1.153 1.043-1.319 3.167-2.04 5.003-1.564 1.714.443 2.803 1.562 3.072 3.494.094.676.087 1.381.093 2.065.019 2.021.006 4.357.006 6.378 0 .284-.045.585-.487.585h-1.627c-.375 0-.46-.243-.46-.494 0-.098-.04-7.304-.06-7.63-.116-2.113-2.096-2.347-3.36-1.738-1.006.483-1.59 1.538-1.628 2.786-.019 1.686-.045 6.186-.045 6.603 0 0 .051.474-.41.473l-1.707.001z"/>
</svg>
